<?xml version="1.0" encoding="UTF-8" standalone="no"?>
<!-- Created with Inkscape (http://www.inkscape.org/) -->

<svg
   version="1.1"
   id="svg1460"
   width="880"
   height="880"
   viewBox="0 0 880 880"
   sodipodi:docname="karting-vehicle-publicdomainvectors.org.svg"
   inkscape:version="1.2 (dc2aedaf03, 2022-05-15)"
   xmlns:inkscape="http://www.inkscape.org/namespaces/inkscape"
   xmlns:sodipodi="http://sodipodi.sourceforge.net/DTD/sodipodi-0.dtd"
   xmlns="http://www.w3.org/2000/svg"
   xmlns:svg="http://www.w3.org/2000/svg">
  <defs
     id="defs1464">
    <clipPath
       clipPathUnits="userSpaceOnUse"
       id="clipPath1476">
      <path
         d="M 0,660 H 660 V 0 H 0 Z"
         id="path1474" />
    </clipPath>
  </defs>
  <sodipodi:namedview
     id="namedview1462"
     pagecolor="#ffffff"
     bordercolor="#000000"
     borderopacity="0.25"
     inkscape:showpageshadow="2"
     inkscape:pageopacity="0.0"
     inkscape:pagecheckerboard="0"
     inkscape:deskcolor="#d1d1d1"
     showgrid="false"
     inkscape:zoom="0.95113636"
     inkscape:cx="440.52569"
     inkscape:cy="440.52569"
     inkscape:window-width="1920"
     inkscape:window-height="1017"
     inkscape:window-x="-8"
     inkscape:window-y="-8"
     inkscape:window-maximized="1"
     inkscape:current-layer="g1468">
    <inkscape:page
       x="0"
       y="0"
       id="page1466"
       width="880"
       height="880" />
  </sodipodi:namedview>
  <g
     id="g1468"
     inkscape:groupmode="layer"
     inkscape:label="Page 1"
     transform="matrix(1.3333333,0,0,-1.3333333,0,880)">
    <g
       id="g1470">
      <g
         id="g1472"
         clip-path="url(#clipPath1476)">
        <g
           id="g1478"
           transform="translate(79.5967,197.5049)">
          <path
             d="m 0,0 h 508.301 c 11.602,0 21.094,-9.491 21.094,-21.094 0,-11.602 -9.492,-21.095 -21.094,-21.095 H 0 c -11.602,0 -21.094,9.493 -21.094,21.095 C -21.094,-9.491 -11.602,0 0,0"
             style="fill:#cccccc;fill-opacity:1;fill-rule:evenodd;stroke:none"
             id="path1480" />
        </g>
        <g
           id="g1482"
           transform="translate(1.8809,306.2275)">
          <path
             d="M 0,0 93.07,-9.713 V -30.344 L 0,-40.057 Z"
             style="fill:#1a1a1a;fill-opacity:1;fill-rule:evenodd;stroke:none"
             id="path1484" />
        </g>
        <g
           id="g1486"
           transform="translate(110.3027,403.0156)">
          <path
             d="m 0,0 h 54.69 c 26.65,0 48.455,-21.803 48.455,-48.453 v -41.739 c 0,-26.649 -21.805,-48.454 -48.455,-48.454 H 0 c -26.65,0 -48.455,21.805 -48.455,48.454 v 41.739 C -48.455,-21.803 -26.65,0 0,0"
             style="fill:#ed5826;fill-opacity:1;fill-rule:evenodd;stroke:none"
             id="path1488" />
        </g>
        <g
           id="g1490"
           transform="translate(142.7939,363.873)">
          <path
             d="m 0,0 v 0 c 14.332,13.648 37.106,12.976 50.868,-1.244 l 103.504,-106.938 -87.135,-14.603 -68.48,71.917 C -14.892,-36.536 -14.331,-13.646 0,0"
             style="fill:#990000;fill-opacity:1;fill-rule:evenodd;stroke:none"
             id="path1492" />
        </g>
        <g
           id="g1494"
           transform="translate(430.21,391.9297)">
          <path
             d="M 0,0 226.271,-140.15 88.866,-145.439 47.244,-73.347 -7.19,-12.075 Z"
             style="fill:#cc3300;fill-opacity:1;fill-rule:evenodd;stroke:none"
             id="path1496" />
        </g>
        <g
           id="g1498"
           transform="translate(408.1572,352.6943)">
          <path
             d="m 0,0 c -1.832,-3.271 -5.97,-4.437 -9.241,-2.603 -3.272,1.833 -4.437,5.972 -2.606,9.243 l 39.103,69.801 c 1.831,3.271 5.972,4.436 9.241,2.603 3.272,-1.833 4.437,-5.972 2.603,-9.242 z"
             style="fill:#000000;fill-opacity:1;fill-rule:evenodd;stroke:none"
             id="path1500" />
        </g>
        <g
           id="g1502"
           transform="translate(294.0391,305.1953)">
          <path
             d="m 0,0 82.837,32.68 c 7.948,3.134 15.979,2.802 23.638,-0.979 l 88.059,-43.452 -25.918,-28.815 -52.973,25.094 c -8.68,4.111 -17.939,3.863 -26.387,-0.705 L 50.923,-36.9 l -62.621,3.797 z"
             style="fill:#990000;fill-opacity:1;fill-rule:evenodd;stroke:none"
             id="path1504" />
        </g>
        <g
           id="g1506"
           transform="translate(39.0547,278.6436)">
          <path
             d="M 0,0 H 147.779 L 617.427,-26.864 591.041,-53.732 H 0 Z"
             style="fill:#cc3300;fill-opacity:1;fill-rule:evenodd;stroke:none"
             id="path1508" />
        </g>
        <g
           id="g1510"
           transform="translate(162.085,176.7676)">
          <path
             d="m 0,0 c 38.457,0 69.826,31.367 69.826,69.829 0,38.459 -31.369,69.826 -69.826,69.826 -38.462,0 -69.83,-31.367 -69.83,-69.826 C -69.83,31.367 -38.462,0 0,0"
             style="fill:#333333;fill-opacity:1;fill-rule:evenodd;stroke:none"
             id="path1512" />
        </g>
        <g
           id="g1514"
           transform="translate(162.083,204.5771)">
          <path
             d="M 0,0 C 23.143,0 42.017,18.877 42.017,42.02 42.017,65.162 23.143,84.038 0,84.038 -23.143,84.038 -42.019,65.162 -42.019,42.02 -42.019,18.877 -23.143,0 0,0"
             style="fill:#f7f7f7;fill-opacity:1;fill-rule:evenodd;stroke:none"
             id="path1516" />
        </g>
        <g
           id="g1518"
           transform="translate(162.083,212.374)">
          <path
             d="M 0,0 C 18.848,0 34.222,15.373 34.222,34.223 34.222,53.07 18.848,68.444 0,68.444 -18.851,68.444 -34.224,53.07 -34.224,34.223 -34.224,15.373 -18.851,0 0,0"
             style="fill:#cccccc;fill-opacity:1;fill-rule:evenodd;stroke:none"
             id="path1520" />
        </g>
        <g
           id="g1522"
           transform="translate(162.085,227.2441)">
          <path
             d="m 0,0 c 10.656,0 19.35,8.693 19.35,19.353 0,10.658 -8.694,19.35 -19.35,19.35 -10.658,0 -19.353,-8.692 -19.353,-19.35 C -19.353,8.693 -10.658,0 0,0"
             style="fill:#f7f7f7;fill-opacity:1;fill-rule:evenodd;stroke:none"
             id="path1524" />
        </g>
        <g
           id="g1526"
           transform="translate(519.0762,176.7676)">
          <path
             d="m 0,0 c 38.46,0 69.829,31.367 69.829,69.829 0,38.459 -31.369,69.826 -69.829,69.826 -38.459,0 -69.828,-31.367 -69.828,-69.826 C -69.828,31.367 -38.459,0 0,0"
             style="fill:#333333;fill-opacity:1;fill-rule:evenodd;stroke:none"
             id="path1528" />
        </g>
        <g
           id="g1530"
           transform="translate(519.0762,204.5771)">
          <path
             d="M 0,0 C 23.143,0 42.018,18.877 42.018,42.02 42.018,65.162 23.143,84.038 0,84.038 -23.145,84.038 -42.019,65.162 -42.019,42.02 -42.019,18.877 -23.145,0 0,0"
             style="fill:#f7f7f7;fill-opacity:1;fill-rule:evenodd;stroke:none"
             id="path1532" />
        </g>
        <g
           id="g1534"
           transform="translate(519.0762,212.374)">
          <path
             d="M 0,0 C 18.848,0 34.223,15.373 34.223,34.223 34.223,53.07 18.848,68.444 0,68.444 -18.85,68.444 -34.222,53.07 -34.222,34.223 -34.222,15.373 -18.85,0 0,0"
             style="fill:#cccccc;fill-opacity:1;fill-rule:evenodd;stroke:none"
             id="path1536" />
        </g>
        <g
           id="g1538"
           transform="translate(519.0762,227.2441)">
          <path
             d="m 0,0 c 10.659,0 19.351,8.693 19.351,19.353 0,10.658 -8.692,19.35 -19.351,19.35 -10.658,0 -19.353,-8.692 -19.353,-19.35 C -19.353,8.693 -10.658,0 0,0"
             style="fill:#f7f7f7;fill-opacity:1;fill-rule:evenodd;stroke:none"
             id="path1540" />
        </g>
        <path
           d="m 208.405,371.234 h 43.654 v 64.285 h -43.654 z"
           style="fill:#1a1a1a;fill-opacity:1;fill-rule:evenodd;stroke:none"
           id="path1542" />
        <g
           id="g1544"
           transform="translate(186.2617,430.9736)">
          <path
             d="m 0,0 c -21.033,75.76 62.591,93.547 98.735,63.731 20.525,-16.93 34.608,-45.043 29.243,-77.383 -0.118,-0.708 -0.333,-1.786 -0.645,-3.148 -1.894,-8.234 -7.165,-14.48 -14.962,-17.736 -7.797,-3.255 -15.944,-2.609 -23.134,1.837 -15.59,9.639 -35.657,14.36 -66.655,15.1 C 11.833,-17.341 2.873,-10.362 0,0"
             style="fill:#cc3300;fill-opacity:1;fill-rule:evenodd;stroke:none"
             id="path1546" />
        </g>
        <g
           id="g1548"
           transform="translate(303.709,472.9395)">
          <path
             d="m 0,0 c 7.503,-12.503 11.988,-27.386 11.634,-43.656 h -42.161 c -11.155,0 -20.284,9.823 -20.284,21.828 v 12.233 c 0,5.278 4.012,9.595 8.916,9.595 z"
             style="fill:#471c1c;fill-opacity:1;fill-rule:evenodd;stroke:none"
             id="path1550" />
        </g>
        <g
           id="g1552"
           transform="translate(215.9678,387.5986)">
          <path
             d="M 0,0 V 0.001 C 14.331,13.647 37.222,13.088 50.868,-1.244 L 119.351,-73.16 67.237,-122.786 -1.245,-50.868 C -14.892,-36.537 -14.331,-13.647 0,0"
             style="fill:#cc3300;fill-opacity:1;fill-rule:evenodd;stroke:none"
             id="path1554" />
        </g>
        <g
           id="g1556"
           transform="translate(251.3418,389.7051)">
          <path
             d="M 0,0 H 123.532 V -31.185 H 0 c -8.576,0 -15.594,7.017 -15.594,15.592 C -15.594,-7.016 -8.576,0 0,0"
             style="fill:#990000;fill-opacity:1;fill-rule:evenodd;stroke:none"
             id="path1558" />
        </g>
        <g
           id="g1560"
           transform="translate(377.7539,382.2686)">
          <path
             d="m 0,0 h 12.953 l 7.659,7.661 c 2.561,2.562 5.68,3.853 9.299,3.853 h 7.987 L 34.981,6.462 49.7,2.517 38.419,-17.021 c -3.225,-5.588 -9.58,-8.221 -15.811,-6.549 l -10.966,2.938 -5.886,5.28 H -2.88 L -2.88,0 Z"
             style="fill:#ffcc99;fill-opacity:1;fill-rule:evenodd;stroke:none"
             id="path1562" />
        </g>
      </g>
    </g>
  </g>
</svg>
